# xmcd
#
# Track frame offsets: 
#        150
#        17984
#        34828
#        67833
#        90094
#        114154
#        146727
#        168849
#        199249
#        213300
#        244050
#        270577
#        294397
#        317892
#        348756
#
# Disc length: 4905 seconds
#
# Revision: 2
# Processed by: cddbd v1.5.2PL0 Copyright (c) Steve Scherf et al.
# Submitted via: ExactAudioCopyFreeDBPlugin 1.0
#
DISCID=ce13270f
DTITLE=Patrice Rushen - Remind Me
DYEAR=2019
DGENRE=Soul
TTITLE0=Music Of The Earth
TTITLE1=Let's Sing A Song Of Love
TTITLE2=Haven't You Heard (12" Version)
TTITLE3=Givin' It Up Is Givin' Up
TTITLE4=When I Found You
TTITLE5=Forget Me Nots (12" Version)
TTITLE6=Look Up! (Long Version)
TTITLE7=Number One (12" Version)
TTITLE8=Where There Is Love
TTITLE9=Never Gonna Give You Up (Won't Let You Be) (Long Version)
TTITLE10=All We Need
TTITLE11=Remind Me (LP Version)
TTITLE12=Settle For My Love
TTITLE13=Feels So Real (Won't Let Go) (12" Version)
TTITLE14=To Each His Own
EXTD=The Classic Elektra Recordings 1978 -1984
EXTT0=
EXTT1=
EXTT2=
EXTT3=
EXTT4=
EXTT5=
EXTT6=
EXTT7=
EXTT8=
EXTT9=
EXTT10=
EXTT11=
EXTT12=
EXTT13=
EXTT14=
PLAYORDER=
